<svg width="120" height="120" viewBox="0 0 120 120" fill="none" xmlns="http://www.w3.org/2000/svg">
  <!-- Dark background -->
  <rect width="120" height="120" rx="24" fill="#0F172A"/>
  
  <!-- Q circle -->
  <circle cx="60" cy="60" r="40" stroke="#0EA5E9" stroke-width="3" fill="none" />
  
  <!-- Licensed airplane - FLIPPED, original rotation (-15°), 10% smaller -->
  <g transform="translate(60, 60) scale(-1, 1) rotate(-15) scale(0.052) translate(-600, -600)">
    <path d="m996.55 579.37-49.648 25.145-105.37-46.32-40.867 30.754 370.22 196.57-108.74 65.664-25.906-33.711-429.47-205.95 75.297 47.051-108.3 19.059 38.957 86.172s52.879-13.879 56.305 0c1.8633 7.5273-4.0391 23.738-14.086 35.586-8.4648 9.957-21.238 16.383-21.238 16.383s-9.5156 20.969-30.699 23.477c-21.184 2.5195-33.883-39.859-33.602-47.855 0.27344-7.9961 24.852-15.766 24.852-15.766l-47.551-84.164-95.27 19.059-82.879-8.8789-2.8125 25.168 30.73 0.54297s10.82 4.9414 5.8711 19.363c-4.9648 14.422-31.574 22.039-31.574 22.039s-3.7383 19.102-17.781 22.383c-14.039 3.2852-27.566-11.301-27.566-11.301s-9.1094-20.543-10.801-29.617c-1.6797-9.0781 28.715-24.82 28.715-24.82l4.832-23.137-25.453-7.0352-24.73-17.129v97.297s-3.6523 6.7109-5.6602-5.6836c-4.8867-30.195-11.039-97.48-11.039-97.48l-5.1289-15.035-18.699-13.328 17.859-20.5-6.3906-120.08 15.629 13.703 5.0742 68.141 54.449-23.008 47.715-3.9062 23.16-32.203 8.7812-27.23-102.91-68.18 55.812 127.19h-23.617l-67.844-150.75 0.34766 0.17578-256.39-169.89 108.3-14.793 523.86 297.73 108.47-8.543-63.414-41.125 57.777-23.5 88.516 38.5 117.38-141.89h38.137l-92.41 183.86z" fill="#38BDF8" fill-rule="evenodd"/>
  </g>
  
  <!-- Swoosh Q-tail -->
  <path d="M84 88 C94 91 98 100 94 112 L88 108 C91 100 89 93 84 91 Z" fill="url(#swoosh)" />
  
  <defs>
    <linearGradient id="swoosh" x1="84" y1="88" x2="94" y2="112" gradientUnits="userSpaceOnUse">
      <stop offset="0%" stop-color="#38BDF8" />
      <stop offset="100%" stop-color="#38BDF8" stop-opacity="0.1" />
    </linearGradient>
  </defs>
</svg>
